# xmcd
#
# Track frame offsets:
#	150
#	15847
#	33320
#	46525
#	58427
#	73017
#	87052
#	99170
#	110500
#	122492
#	137760
#
# Disc length: 2105 seconds
#
# Revision: 0
# Processed by: cddbd v1.4PL0 Copyright (c) Steve Scherf et al.
# Submitted via: audiograbber 1.80
#
DISCID=8208370b
DTITLE=Hometown News  - Wheels
DYEAR=1900
DGENRE=
TTITLE0=Rvitalize
TTITLE1=Wheels
TTITLE2=Minivan
TTITLE3=First Second Chance
TTITLE4=Look My Way
TTITLE5=No Big Deal
TTITLE6=All The Time
TTITLE7=Stuck In The Middle With You
TTITLE8=Can't Let Go
TTITLE9=She's Not You
TTITLE10=Run To You
EXTD=
EXTT0=
EXTT1=
EXTT2=
EXTT3=
EXTT4=
EXTT5=
EXTT6=
EXTT7=
EXTT8=
EXTT9=
EXTT10=
PLAYORDER=
